# xmcd
#
# Track frame offsets: 
#        150
#        11385
#        24237
#        35057
#        43612
#        53800
#        65275
#        77795
#        89710
#        102750
#        114342
#        127205
#        138555
#
# Disc length: 2015 seconds
#
# Revision: 0
# Processed by: cddbd v1.5.1PL0 Copyright (c) Steve Scherf et al.
# Submitted via: ExactAudioCopy v0.95a4
#
DISCID=ab07dd0d
DTITLE=Ray Campi - Taylro, Texas 1988
DYEAR=1900
DGENRE=Country
TTITLE0=Curtain Of Tears (Ray Campi with Jon Emery and Rosie Flores)
TTITLE1=Haunted Hungry Heart (Ray Campi and Rosie Flores)
TTITLE2=The Woods Are Full Of Them Now
TTITLE3=Dessau Waltz (Jon Emery and Kimmie Rhodes)
TTITLE4=When They Operated On Papa
TTITLE5=Butterball Bounce
TTITLE6=Wild Side Of Life (Ray Campi and Rosie Flores)
TTITLE7=That's That
TTITLE8=A Million Years
TTITLE9=Honk Your Horn
TTITLE10=Love For Sale (Jon Emery and Kimmie Rhodes)
TTITLE11=Honky Tonk Women
TTITLE12=Bermuda Grass Waltz
EXTD=
EXTT0=
EXTT1=
EXTT2=
EXTT3=
EXTT4=
EXTT5=
EXTT6=
EXTT7=
EXTT8=
EXTT9=
EXTT10=
EXTT11=
EXTT12=
PLAYORDER=
